<svg width="13" height="240" viewBox="0 0 13 240" fill="none" xmlns="http://www.w3.org/2000/svg">
<mask id="mask0_433_18606" style="mask-type:alpha" maskUnits="userSpaceOnUse" x="0" y="0" width="13" height="240">
<rect width="13" height="240" rx="5" fill="#524FD5"/>
</mask>
<g mask="url(#mask0_433_18606)">
<path d="M-1.06066 2.07629C-0.474874 2.66207 0.474874 2.66207 1.06066 2.07629L10.6066 -7.46966C11.1924 -8.05544 11.1924 -9.00519 10.6066 -9.59098C10.0208 -10.1768 9.07107 -10.1768 8.48528 -9.59098L-9.15667e-08 -1.1057L-8.48528 -9.59098C-9.07107 -10.1768 -10.0208 -10.1768 -10.6066 -9.59098C-11.1924 -9.00519 -11.1924 -8.05544 -10.6066 -7.46966L-1.06066 2.07629ZM1.5 0.0029667C1.5 -0.82546 0.828427 -1.49703 -1.08459e-07 -1.49703C-0.828427 -1.49703 -1.5 -0.82546 -1.5 0.00296683L1.5 0.0029667ZM1.5 1.01562L1.5 0.0029667L-1.5 0.00296683L-1.5 1.01563L1.5 1.01562Z" fill="#FDC000"/>
<path d="M-1.06066 14.2325C-0.474874 14.8183 0.474874 14.8183 1.06066 14.2325L10.6066 4.68659C11.1924 4.10081 11.1924 3.15106 10.6066 2.56527C10.0208 1.97949 9.07107 1.97949 8.48528 2.56527L-9.15667e-08 11.0506L-8.48528 2.56527C-9.07107 1.97949 -10.0208 1.97949 -10.6066 2.56527C-11.1924 3.15106 -11.1924 4.10081 -10.6066 4.68659L-1.06066 14.2325ZM1.5 12.1592C1.5 11.3308 0.828427 10.6592 -1.08459e-07 10.6592C-0.828427 10.6592 -1.5 11.3308 -1.5 12.1592L1.5 12.1592ZM1.5 13.1719L1.5 12.1592L-1.5 12.1592L-1.5 13.1719L1.5 13.1719Z" fill="#FDC000"/>
<path d="M-1.06066 26.381C-0.474874 26.9668 0.474874 26.9668 1.06066 26.381L10.6066 16.835C11.1924 16.2492 11.1924 15.2995 10.6066 14.7137C10.0208 14.1279 9.07107 14.1279 8.48528 14.7137L-9.15667e-08 23.199L-8.48528 14.7137C-9.07107 14.1279 -10.0208 14.1279 -10.6066 14.7137C-11.1924 15.2995 -11.1924 16.2492 -10.6066 16.835L-1.06066 26.381ZM1.5 24.3077C1.5 23.4792 0.828427 22.8077 -1.08459e-07 22.8077C-0.828427 22.8077 -1.5 23.4792 -1.5 24.3077L1.5 24.3077ZM1.5 25.3203L1.5 24.3077L-1.5 24.3077L-1.5 25.3203L1.5 25.3203Z" fill="#FDC000"/>
<path d="M-1.06066 38.5294C-0.474874 39.1152 0.474874 39.1152 1.06066 38.5294L10.6066 28.9835C11.1924 28.3977 11.1924 27.4479 10.6066 26.8621C10.0208 26.2764 9.07107 26.2764 8.48528 26.8621L-9.15667e-08 35.3474L-8.48528 26.8621C-9.07107 26.2764 -10.0208 26.2764 -10.6066 26.8621C-11.1924 27.4479 -11.1924 28.3977 -10.6066 28.9835L-1.06066 38.5294ZM1.5 36.4561C1.5 35.6277 0.828427 34.9561 -1.08459e-07 34.9561C-0.828427 34.9561 -1.5 35.6277 -1.5 36.4561L1.5 36.4561ZM1.5 37.4687L1.5 36.4561L-1.5 36.4561L-1.5 37.4688L1.5 37.4687Z" fill="#FDC000"/>
<path d="M-1.06066 50.6857C-0.474874 51.2714 0.474874 51.2714 1.06066 50.6857L10.6066 41.1397C11.1924 40.5539 11.1924 39.6042 10.6066 39.0184C10.0208 38.4326 9.07107 38.4326 8.48528 39.0184L-9.15667e-08 47.5037L-8.48528 39.0184C-9.07107 38.4326 -10.0208 38.4326 -10.6066 39.0184C-11.1924 39.6042 -11.1924 40.5539 -10.6066 41.1397L-1.06066 50.6857ZM1.5 48.6123C1.5 47.7839 0.828427 47.1123 -1.08459e-07 47.1123C-0.828427 47.1123 -1.5 47.7839 -1.5 48.6123L1.5 48.6123ZM1.5 49.625L1.5 48.6123L-1.5 48.6123L-1.5 49.625L1.5 49.625Z" fill="#FDC000"/>
<path d="M-1.06066 62.8341C-0.474874 63.4199 0.474874 63.4199 1.06066 62.8341L10.6066 53.2882C11.1924 52.7024 11.1924 51.7526 10.6066 51.1668C10.0208 50.581 9.07107 50.581 8.48528 51.1668L-9.15667e-08 59.6521L-8.48528 51.1668C-9.07107 50.581 -10.0208 50.581 -10.6066 51.1668C-11.1924 51.7526 -11.1924 52.7024 -10.6066 53.2882L-1.06066 62.8341ZM1.5 60.7608C1.5 59.9324 0.828427 59.2608 -1.08459e-07 59.2608C-0.828427 59.2608 -1.5 59.9324 -1.5 60.7608L1.5 60.7608ZM1.5 61.7734L1.5 60.7608L-1.5 60.7608L-1.5 61.7734L1.5 61.7734Z" fill="#FDC000"/>
<path d="M-1.06066 74.9903C-0.474874 75.5761 0.474874 75.5761 1.06066 74.9903L10.6066 65.4444C11.1924 64.8586 11.1924 63.9089 10.6066 63.3231C10.0208 62.7373 9.07107 62.7373 8.48528 63.3231L-9.15667e-08 71.8084L-8.48528 63.3231C-9.07107 62.7373 -10.0208 62.7373 -10.6066 63.3231C-11.1924 63.9089 -11.1924 64.8586 -10.6066 65.4444L-1.06066 74.9903ZM1.5 72.917C1.5 72.0886 0.828427 71.417 -1.08459e-07 71.417C-0.828427 71.417 -1.5 72.0886 -1.5 72.917L1.5 72.917ZM1.5 73.9297L1.5 72.917L-1.5 72.917L-1.5 73.9297L1.5 73.9297Z" fill="#FDC000"/>
<path d="M-1.06066 182.334C-0.474874 182.92 0.474874 182.92 1.06066 182.334L10.6066 172.788C11.1924 172.202 11.1924 171.253 10.6066 170.667C10.0208 170.081 9.07107 170.081 8.48528 170.667L-9.15667e-08 179.152L-8.48528 170.667C-9.07107 170.081 -10.0208 170.081 -10.6066 170.667C-11.1924 171.253 -11.1924 172.202 -10.6066 172.788L-1.06066 182.334ZM1.5 180.261C1.5 179.432 0.828427 178.761 -1.08459e-07 178.761C-0.828427 178.761 -1.5 179.432 -1.5 180.261L1.5 180.261ZM1.5 181.273L1.5 180.261L-1.5 180.261L-1.5 181.273L1.5 181.273Z" fill="#FDC000"/>
<path d="M-1.06066 194.483C-0.474874 195.068 0.474874 195.068 1.06066 194.483L10.6066 184.937C11.1924 184.351 11.1924 183.401 10.6066 182.815C10.0208 182.229 9.07107 182.229 8.48528 182.815L-9.15667e-08 191.301L-8.48528 182.815C-9.07107 182.229 -10.0208 182.229 -10.6066 182.815C-11.1924 183.401 -11.1924 184.351 -10.6066 184.937L-1.06066 194.483ZM1.5 192.409C1.5 191.581 0.828427 190.909 -1.08459e-07 190.909C-0.828427 190.909 -1.5 191.581 -1.5 192.409L1.5 192.409ZM1.5 193.422L1.5 192.409L-1.5 192.409L-1.5 193.422L1.5 193.422Z" fill="#FDC000"/>
<path d="M-1.06066 206.639C-0.474874 207.225 0.474874 207.225 1.06066 206.639L10.6066 197.093C11.1924 196.507 11.1924 195.557 10.6066 194.972C10.0208 194.386 9.07107 194.386 8.48528 194.972L-9.15667e-08 203.457L-8.48528 194.972C-9.07107 194.386 -10.0208 194.386 -10.6066 194.972C-11.1924 195.557 -11.1924 196.507 -10.6066 197.093L-1.06066 206.639ZM1.5 204.565C1.5 203.737 0.828427 203.065 -1.08459e-07 203.065C-0.828427 203.065 -1.5 203.737 -1.5 204.565L1.5 204.565ZM1.5 205.578L1.5 204.565L-1.5 204.565L-1.5 205.578L1.5 205.578Z" fill="#FDC000"/>
<path d="M-1.06066 218.787C-0.474874 219.373 0.474874 219.373 1.06066 218.787L10.6066 209.241C11.1924 208.655 11.1924 207.706 10.6066 207.12C10.0208 206.534 9.07107 206.534 8.48528 207.12L-9.15667e-08 215.605L-8.48528 207.12C-9.07107 206.534 -10.0208 206.534 -10.6066 207.12C-11.1924 207.706 -11.1924 208.655 -10.6066 209.241L-1.06066 218.787ZM1.5 216.714C1.5 215.885 0.828427 215.214 -1.08459e-07 215.214C-0.828427 215.214 -1.5 215.885 -1.5 216.714L1.5 216.714ZM1.5 217.727L1.5 216.714L-1.5 216.714L-1.5 217.727L1.5 217.727Z" fill="#FDC000"/>
<path d="M-1.06066 230.936C-0.474874 231.521 0.474874 231.521 1.06066 230.936L10.6066 221.39C11.1924 220.804 11.1924 219.854 10.6066 219.268C10.0208 218.683 9.07107 218.683 8.48528 219.268L-9.15667e-08 227.754L-8.48528 219.268C-9.07107 218.683 -10.0208 218.683 -10.6066 219.268C-11.1924 219.854 -11.1924 220.804 -10.6066 221.39L-1.06066 230.936ZM1.5 228.862C1.5 228.034 0.828427 227.362 -1.08459e-07 227.362C-0.828427 227.362 -1.5 228.034 -1.5 228.862L1.5 228.862ZM1.5 229.875L1.5 228.862L-1.5 228.862L-1.5 229.875L1.5 229.875Z" fill="#FDC000"/>
<path d="M-1.06066 243.092C-0.474874 243.678 0.474874 243.678 1.06066 243.092L10.6066 233.546C11.1924 232.96 11.1924 232.01 10.6066 231.425C10.0208 230.839 9.07107 230.839 8.48528 231.425L-9.15667e-08 239.91L-8.48528 231.425C-9.07107 230.839 -10.0208 230.839 -10.6066 231.425C-11.1924 232.01 -11.1924 232.96 -10.6066 233.546L-1.06066 243.092ZM1.5 241.019C1.5 240.19 0.828427 239.519 -1.08459e-07 239.519C-0.828427 239.519 -1.5 240.19 -1.5 241.019L1.5 241.019ZM1.5 242.031L1.5 241.019L-1.5 241.019L-1.5 242.031L1.5 242.031Z" fill="#FDC000"/>
<path d="M-1.06066 86.131C-0.474874 86.7168 0.474874 86.7168 1.06066 86.131L10.6066 76.585C11.1924 75.9992 11.1924 75.0495 10.6066 74.4637C10.0208 73.8779 9.07107 73.8779 8.48528 74.4637L-9.15667e-08 82.949L-8.48528 74.4637C-9.07107 73.8779 -10.0208 73.8779 -10.6066 74.4637C-11.1924 75.0495 -11.1924 75.9992 -10.6066 76.585L-1.06066 86.131ZM1.5 84.0577C1.5 83.2292 0.828427 82.5577 -1.08459e-07 82.5577C-0.828427 82.5577 -1.5 83.2292 -1.5 84.0577L1.5 84.0577ZM1.5 85.0703L1.5 84.0577L-1.5 84.0577L-1.5 85.0703L1.5 85.0703Z" fill="#FDC000"/>
<path d="M-1.06066 98.2794C-0.474874 98.8652 0.474874 98.8652 1.06066 98.2794L10.6066 88.7335C11.1924 88.1477 11.1924 87.1979 10.6066 86.6121C10.0208 86.0264 9.07107 86.0264 8.48528 86.6121L-9.15667e-08 95.0974L-8.48528 86.6121C-9.07107 86.0264 -10.0208 86.0264 -10.6066 86.6121C-11.1924 87.1979 -11.1924 88.1477 -10.6066 88.7335L-1.06066 98.2794ZM1.5 96.2061C1.5 95.3777 0.828427 94.7061 -1.08459e-07 94.7061C-0.828427 94.7061 -1.5 95.3777 -1.5 96.2061L1.5 96.2061ZM1.5 97.2187L1.5 96.2061L-1.5 96.2061L-1.5 97.2188L1.5 97.2187Z" fill="#FDC000"/>
<path d="M-1.06066 110.436C-0.474874 111.021 0.474874 111.021 1.06066 110.436L10.6066 100.89C11.1924 100.304 11.1924 99.3542 10.6066 98.7684C10.0208 98.1826 9.07107 98.1826 8.48528 98.7684L-9.15667e-08 107.254L-8.48528 98.7684C-9.07107 98.1826 -10.0208 98.1826 -10.6066 98.7684C-11.1924 99.3542 -11.1924 100.304 -10.6066 100.89L-1.06066 110.436ZM1.5 108.362C1.5 107.534 0.828427 106.862 -1.08459e-07 106.862C-0.828427 106.862 -1.5 107.534 -1.5 108.362L1.5 108.362ZM1.5 109.375L1.5 108.362L-1.5 108.362L-1.5 109.375L1.5 109.375Z" fill="#FDC000"/>
<path d="M-1.06066 122.584C-0.474874 123.17 0.474874 123.17 1.06066 122.584L10.6066 113.038C11.1924 112.452 11.1924 111.503 10.6066 110.917C10.0208 110.331 9.07107 110.331 8.48528 110.917L-9.15667e-08 119.402L-8.48528 110.917C-9.07107 110.331 -10.0208 110.331 -10.6066 110.917C-11.1924 111.503 -11.1924 112.452 -10.6066 113.038L-1.06066 122.584ZM1.5 120.511C1.5 119.682 0.828427 119.011 -1.08459e-07 119.011C-0.828427 119.011 -1.5 119.682 -1.5 120.511L1.5 120.511ZM1.5 121.523L1.5 120.511L-1.5 120.511L-1.5 121.523L1.5 121.523Z" fill="#FDC000"/>
<path d="M-1.06066 134.733C-0.474874 135.318 0.474874 135.318 1.06066 134.733L10.6066 125.187C11.1924 124.601 11.1924 123.651 10.6066 123.065C10.0208 122.479 9.07107 122.479 8.48528 123.065L-9.15667e-08 131.551L-8.48528 123.065C-9.07107 122.479 -10.0208 122.479 -10.6066 123.065C-11.1924 123.651 -11.1924 124.601 -10.6066 125.187L-1.06066 134.733ZM1.5 132.659C1.5 131.831 0.828427 131.159 -1.08459e-07 131.159C-0.828427 131.159 -1.5 131.831 -1.5 132.659L1.5 132.659ZM1.5 133.672L1.5 132.659L-1.5 132.659L-1.5 133.672L1.5 133.672Z" fill="#FDC000"/>
<path d="M-1.06066 146.889C-0.474874 147.475 0.474874 147.475 1.06066 146.889L10.6066 137.343C11.1924 136.757 11.1924 135.807 10.6066 135.222C10.0208 134.636 9.07107 134.636 8.48528 135.222L-9.15667e-08 143.707L-8.48528 135.222C-9.07107 134.636 -10.0208 134.636 -10.6066 135.222C-11.1924 135.807 -11.1924 136.757 -10.6066 137.343L-1.06066 146.889ZM1.5 144.815C1.5 143.987 0.828427 143.315 -1.08459e-07 143.315C-0.828427 143.315 -1.5 143.987 -1.5 144.815L1.5 144.815ZM1.5 145.828L1.5 144.815L-1.5 144.815L-1.5 145.828L1.5 145.828Z" fill="#FDC000"/>
<path d="M-1.06066 159.037C-0.474874 159.623 0.474874 159.623 1.06066 159.037L10.6066 149.491C11.1924 148.905 11.1924 147.956 10.6066 147.37C10.0208 146.784 9.07107 146.784 8.48528 147.37L-9.15667e-08 155.855L-8.48528 147.37C-9.07107 146.784 -10.0208 146.784 -10.6066 147.37C-11.1924 147.956 -11.1924 148.905 -10.6066 149.491L-1.06066 159.037ZM1.5 156.964C1.5 156.135 0.828427 155.464 -1.08459e-07 155.464C-0.828427 155.464 -1.5 156.135 -1.5 156.964L1.5 156.964ZM1.5 157.977L1.5 156.964L-1.5 156.964L-1.5 157.977L1.5 157.977Z" fill="#FDC000"/>
<path d="M-1.06066 171.193C-0.474874 171.779 0.474874 171.779 1.06066 171.193L10.6066 161.648C11.1924 161.062 11.1924 160.112 10.6066 159.526C10.0208 158.94 9.07107 158.94 8.48528 159.526L-9.15667e-08 168.011L-8.48528 159.526C-9.07107 158.94 -10.0208 158.94 -10.6066 159.526C-11.1924 160.112 -11.1924 161.062 -10.6066 161.648L-1.06066 171.193ZM1.5 169.12C1.5 168.292 0.828427 167.62 -1.08459e-07 167.62C-0.828427 167.62 -1.5 168.292 -1.5 169.12L1.5 169.12ZM1.5 170.133L1.5 169.12L-1.5 169.12L-1.5 170.133L1.5 170.133Z" fill="#FDC000"/>
</g>
</svg>
