<svg width="21" height="21" viewBox="0 0 21 21" fill="none" xmlns="http://www.w3.org/2000/svg">
<g clip-path="url(#clip0_433_18652)">
<path d="M1.20593 5.51752C1.32358 5.27925 1.32358 4.92184 1.55887 4.68357C1.91181 4.08789 2.50005 3.96875 3.08829 3.96875C4.14711 3.96875 5.20593 3.96875 6.26476 3.96875C10.1471 3.96875 14.0295 3.96875 17.7942 3.96875C18.2648 3.96875 18.7353 4.08789 19.0883 4.44529C19.5589 4.8027 19.7942 5.27925 19.7942 5.87493C19.7942 6.70888 19.7942 7.66197 19.7942 8.49593C19.7942 10.6404 19.7942 12.6657 19.7942 14.8102C19.7942 15.7632 19.3236 16.4781 18.3824 16.7163C18.2648 16.7163 18.0295 16.7163 17.9118 16.7163C12.9706 16.7163 8.02946 16.7163 3.20593 16.7163C2.3824 16.7163 1.79417 16.3589 1.44123 15.6441C1.32358 15.525 1.32358 15.2867 1.20593 15.1676C1.20593 11.8317 1.20593 8.7342 1.20593 5.51752ZM3.08829 5.16011C3.08829 5.27925 3.20593 5.27925 3.08829 5.16011C5.44123 7.54284 7.79417 9.92556 10.0295 12.1892C10.3824 12.5466 10.7353 12.5466 10.9706 12.1892C13.2059 9.92556 15.5589 7.54284 17.7942 5.27925L17.9118 5.16011C12.9706 5.16011 8.02946 5.16011 3.08829 5.16011ZM17.4412 15.4058C16.1471 14.0953 14.853 12.6657 13.4412 11.3552L13.3236 11.4743C12.853 11.9509 12.2648 12.5466 11.7942 13.0231C11.0883 13.7379 9.91181 13.7379 9.20593 13.0231C8.73534 12.6657 8.26476 12.1892 7.91181 11.8317C7.79417 11.5935 7.67652 11.4743 7.55887 11.3552C6.26476 12.6657 4.85299 14.0953 3.55887 15.4058C8.14711 15.4058 12.853 15.4058 17.4412 15.4058ZM2.3824 6.23234C2.3824 9.09161 2.3824 11.8317 2.3824 14.691C3.79417 13.2614 5.20593 11.8317 6.50005 10.5212C5.20593 9.09161 3.79417 7.66197 2.3824 6.23234ZM18.6177 6.23234C17.2059 7.66197 15.7942 9.09161 14.5 10.4021C15.9118 11.8317 17.3236 13.2614 18.6177 14.5719C18.6177 11.8317 18.6177 9.09161 18.6177 6.23234Z" fill="#BEC7D8" stroke="#BEC7D8" stroke-width="0.9" stroke-miterlimit="10"/>
</g>
<defs>
<clipPath id="clip0_433_18652">
<rect width="20" height="20.2532" fill="white" transform="translate(0.5 0.15625)"/>
</clipPath>
</defs>
</svg>
