<svg width="227" height="92" viewBox="0 0 227 92" fill="none" xmlns="http://www.w3.org/2000/svg">
<g clip-path="url(#clip0_323_10439)">
<path d="M30.8661 67.0639L26.4515 89.3933C26.162 90.8796 27.4285 92.1845 28.9121 91.967C53.9886 87.9071 73.1669 66.0852 73.1669 39.8047L52.4688 59.0167L30.8661 67.0639Z" fill="url(#paint0_linear_323_10439)"/>
<path d="M36.5835 76.4474C16.6091 76.4474 0.289484 60.3166 0 40.3797C0 40.0897 0.253298 39.8359 0.542782 39.8359H19.3592C19.6487 39.8359 19.902 40.0897 19.902 40.3797C20.1915 49.3332 27.5733 56.5467 36.5835 56.5467C45.5937 56.5467 52.9755 49.3332 53.265 40.3797C53.265 40.0897 53.5183 39.8359 53.8078 39.8359H72.6242C72.9137 39.8359 73.167 40.0897 73.167 40.3797C72.8413 60.3166 56.5579 76.4474 36.5835 76.4474Z" fill="url(#paint1_linear_323_10439)"/>
<path d="M35.8959 4.13239L27.2476 47.8487C26.9943 49.2262 28.4055 50.2774 29.6358 49.6611L38.7183 44.9125H90.8616C93.684 44.9125 95.9999 42.6288 95.9999 39.7652V5.14736C95.9999 2.28369 93.7202 0 90.8978 0H40.9618C38.5012 0 36.4025 1.73995 35.8959 4.13239Z" fill="url(#paint2_linear_323_10439)"/>
<path d="M51.0215 10.4003C51.1663 10.0741 51.4919 9.85656 51.8538 9.85656C52.288 9.85656 52.7222 10.1828 52.7222 10.654C52.7222 10.7628 52.686 10.9078 52.6499 10.944L50.5873 16.0189C49.9359 17.6139 49.2846 18.9913 47.4753 19.0276C46.9687 19.0276 46.5707 18.7013 46.5707 18.2301C46.5707 17.8313 46.8964 17.4689 47.403 17.4326C47.9457 17.3964 48.2352 17.1789 48.5247 16.5989L46.1727 10.8715C46.1365 10.7628 46.1365 10.654 46.1365 10.5815C46.1365 10.1466 46.5345 9.82031 47.0049 9.82031C47.3306 9.82031 47.6563 10.0016 47.801 10.364L48.9228 13.119C49.1399 13.6627 49.2484 14.2789 49.4294 14.8952C49.6103 14.3152 49.6826 13.7352 49.8998 13.1552L51.0215 10.4003Z" fill="white"/>
<path d="M54.9296 14.8562C54.9296 15.1462 55.0381 15.4724 55.6533 15.4724C55.8342 15.4724 56.1961 15.4362 56.5941 15.3637V13.2612C56.5941 12.8262 56.9922 12.5 57.4626 12.5C57.933 12.5 58.331 12.8625 58.331 13.2612V18.2998C58.331 18.7348 57.933 19.0973 57.4626 19.0973C56.9922 19.0973 56.5941 18.7711 56.5941 18.2998V16.7774C56.2323 16.9224 55.9066 16.9224 55.6895 16.9224C53.9164 16.9224 53.1565 16.1611 53.1565 14.8924V13.2975C53.1565 12.8625 53.5545 12.5362 54.0249 12.5362C54.4954 12.5362 54.8934 12.8987 54.8934 13.2975V14.8562H54.9296Z" fill="white"/>
<path d="M63.3246 13.0097C63.4331 12.6472 63.795 12.4659 64.1568 12.4659C64.5911 12.4659 65.0253 12.7922 65.0253 13.2272C65.0253 13.2997 65.0253 13.4084 64.9891 13.4447L63.4331 17.9758C62.7456 20.042 62.239 21.5282 60.3212 21.5282C59.8146 21.5282 59.4166 21.2019 59.4166 20.767C59.4166 20.3682 59.7422 20.042 60.2488 20.0057C60.7916 19.9695 61.0811 19.5707 61.4068 18.592L59.4527 13.5172C59.4166 13.3722 59.3804 13.2634 59.3804 13.1909C59.3804 12.7559 59.7784 12.4297 60.2488 12.4297C60.5745 12.4297 60.9002 12.6109 61.0449 12.9734L61.841 15.1121C62.0219 15.5834 62.0943 16.0908 62.239 16.5621C62.3476 16.0908 62.4561 15.5471 62.6009 15.1121L63.3246 13.0097Z" fill="white"/>
<path d="M65.8577 14.8974C65.8577 13.52 66.6899 12.4688 68.4992 12.4688C69.2591 12.4688 70.6703 12.65 70.6703 13.5925C70.6703 13.8825 70.5256 14.245 69.8743 14.245C69.7295 14.245 69.621 14.245 69.44 14.1725C69.1867 14.0637 68.9696 13.955 68.5716 13.955C67.8841 13.955 67.5946 14.3174 67.5946 14.9337V16.6374C67.5946 17.2536 67.8841 17.6161 68.5716 17.6161C68.9696 17.6161 69.1867 17.5074 69.44 17.3986C69.5848 17.3624 69.6571 17.3261 69.8381 17.3261C70.4894 17.3261 70.6703 17.6886 70.6703 17.9786C70.6703 18.8848 69.2591 19.1023 68.4992 19.1023C66.6899 19.1023 65.8939 18.0148 65.8939 16.6736V14.8974H65.8577Z" fill="white"/>
<path d="M73.4928 14.8924H74.5421C76.3514 14.8924 77.0751 15.6537 77.0751 16.9586C77.0751 18.1548 76.279 18.9886 74.7231 18.9886H72.6243C72.1177 18.9886 71.7559 18.6261 71.7559 18.1911V13.2612C71.7559 12.8262 72.1539 12.5 72.6243 12.5C73.0947 12.5 73.4928 12.8625 73.4928 13.2612V14.8924ZM73.4928 16.3061V17.5024H74.6869C75.1211 17.5024 75.3382 17.3211 75.3382 16.8861C75.3382 16.5961 75.2297 16.2699 74.5421 16.2699H73.4928V16.3061Z" fill="white"/>
<path d="M50.6959 30.4477C51.6005 30.8102 51.9985 31.2452 51.9985 31.9339C51.9985 32.9489 51.1663 33.7101 49.5018 33.7101H47.6563C47.1497 33.7101 46.7878 33.3476 46.7878 32.9127V28.0553C46.7878 27.6203 47.1859 27.2578 47.6563 27.2578H49.357C51.0215 27.2578 51.8538 28.0553 51.8538 29.034C51.8538 29.6502 51.5643 30.0852 50.6959 30.4477ZM48.5609 29.8315H49.3932C50.0445 29.8315 50.1531 29.5415 50.1531 29.2153C50.1531 28.744 49.8998 28.5628 49.3932 28.5628H48.5971V29.8315H48.5609ZM49.357 31.0277H48.5247V32.3689H49.4656C49.9722 32.3689 50.2255 32.1514 50.2255 31.7164C50.2616 31.3902 50.1169 31.0277 49.357 31.0277Z" fill="white"/>
<path d="M59.9955 30.5514V29.9714H58.8376V32.9801C58.8376 33.4151 58.4396 33.8138 57.933 33.8138C57.4264 33.8138 57.0283 33.4151 57.0283 32.9801V25.404C57.0283 24.969 57.4264 24.5703 57.933 24.5703C58.4034 24.5703 58.8376 24.969 58.8376 25.404V28.3765H59.9955V27.8327C59.9955 26.0565 60.9002 24.6066 63.1798 24.6066C65.4595 24.6066 66.3642 26.0565 66.3642 27.8327V30.5876C66.3642 32.4001 65.2786 33.8138 63.1798 33.8138C61.0811 33.8138 59.9955 32.3639 59.9955 30.5514ZM61.7686 27.8327V30.5876C61.7686 31.5301 62.2028 32.2189 63.1798 32.2189C64.1569 32.2189 64.5911 31.5664 64.5911 30.5876V27.8327C64.5911 26.8902 64.2292 26.2378 63.1798 26.2378C62.1305 26.2378 61.7686 26.854 61.7686 27.8327Z" fill="white"/>
<path d="M69.4762 32.9852C69.4762 33.4201 69.0781 33.7826 68.6077 33.7826C68.1373 33.7826 67.7393 33.4564 67.7393 32.9852V27.9828C67.7393 27.5478 68.1011 27.2578 68.5715 27.2578H71.4302C71.8644 27.2578 72.2624 27.5841 72.2624 27.9828C72.2624 28.3815 71.9006 28.7078 71.4302 28.7078H69.4762V32.9852Z" fill="white"/>
<path d="M75.0487 33.5233V35.6257C75.0487 36.0607 74.723 36.3869 74.1802 36.3869C73.6374 36.3869 73.3118 36.0244 73.3118 35.6257V29.1371C73.3118 28.8471 73.2756 28.7021 73.167 28.5209C73.0585 28.3759 72.9861 28.3034 72.9861 28.1222C72.9861 27.6509 73.4203 27.3609 73.8184 27.3609C74.0716 27.3609 74.2888 27.5059 74.4697 27.7234C75.0848 27.3972 75.5914 27.1797 76.279 27.1797C77.7264 27.1797 78.5948 28.1947 78.5948 29.6809V31.1671C78.5948 32.6533 77.9797 33.8133 76.1704 33.8133C75.8086 33.777 75.4829 33.7408 75.0487 33.5233ZM75.0487 32.1458C75.4467 32.2545 75.7362 32.327 75.9895 32.327C76.6046 32.327 76.8579 31.9283 76.8579 31.1308V29.6446C76.8579 28.9921 76.5684 28.6296 76.0257 28.6296C75.7724 28.6296 75.4467 28.7021 75.0487 28.8834C75.0487 28.9559 75.0848 29.0646 75.0848 29.1371V32.1458H75.0487Z" fill="white"/>
<path d="M81.4535 31.1693V31.6043C81.4535 32.0392 81.7791 32.3292 82.4666 32.3292C82.8647 32.3292 83.1904 32.2205 83.6246 32.0392C83.6608 32.003 83.8055 31.9667 84.0226 31.9667C84.6378 31.9667 84.8187 32.3655 84.8187 32.6555C84.8187 33.5617 83.1904 33.7792 82.3581 33.7792C80.6936 33.7792 79.7166 32.8005 79.7166 31.5318V29.3931C79.7166 28.0881 80.6574 27.1094 82.4305 27.1094C84.095 27.1094 84.9273 27.9794 84.9273 29.2843C84.9273 30.5168 84.1674 31.2055 82.4666 31.2055C82.1048 31.2418 81.8515 31.2418 81.4535 31.1693ZM82.3943 28.5231C81.7791 28.5231 81.4535 28.8493 81.4535 29.3568V29.9005C81.8515 29.9368 82.2495 29.9368 82.3581 29.9368C82.8285 29.9368 83.1542 29.7556 83.1542 29.2118C83.1904 28.7406 82.9009 28.5231 82.3943 28.5231Z" fill="white"/>
</g>
<g clip-path="url(#clip1_323_10439)">
<path d="M117.265 91.8309L226.494 29.7647C226.831 29.5956 227 29.3419 227 29.0037V0.845588C227 0.338235 226.578 0 226.157 0H149.486C149.148 0 148.811 0.253676 148.642 0.591912L116.084 90.7316C115.747 91.4926 116.506 92.2537 117.265 91.8309Z" fill="white"/>
<path d="M226.072 0.676471C226.241 0.676471 226.325 0.761029 226.325 0.930147V29.0037C226.325 29.0882 226.241 29.1728 226.157 29.1728L116.928 91.3235H116.843C116.759 91.3235 116.675 91.239 116.675 91.239C116.59 91.1544 116.675 91.0698 116.675 90.9853L149.317 0.761029C149.317 0.676471 149.401 0.591912 149.57 0.591912H226.072M226.072 0H149.486C149.148 0 148.811 0.253676 148.642 0.591912L116.084 90.7316C115.831 91.3235 116.337 91.9154 116.928 91.9154C117.097 91.9154 117.181 91.9154 117.35 91.8309L226.494 29.7647C226.831 29.5956 227 29.3419 227 29.0037V0.845588C227 0.422794 226.578 0 226.072 0Z" fill="#64BDE1"/>
<path d="M147.546 23.0019L116.084 90.7335C115.747 91.41 116.422 92.171 117.181 91.9173L215.951 55.8953C216.288 55.8107 216.541 55.4725 216.541 55.0497V23.4247C216.541 22.9173 216.119 22.5791 215.698 22.5791H148.389C148.052 22.4945 147.714 22.7482 147.546 23.0019Z" fill="#64BDE1"/>
<path d="M152.185 27.9926H150.582V24.2721H149.232V32.9816H150.582V29.261H152.1V32.9816H153.534V24.2721H152.1V27.9926H152.185ZM209.793 24.2721H208.444V32.9816H209.793V24.2721ZM155.811 24.2721L154.462 32.9816H155.727L155.98 31.375H157.667L157.92 32.9816H159.27L157.836 24.2721H155.811ZM156.064 30.1912L156.739 25.7941L157.414 30.1912H156.064ZM167.62 27.8235L167.114 29.7684V24.2721H165.933V32.9816H167.367L168.548 29.0074L169.138 26.8934V32.9816H170.403V24.2721H168.885L167.62 27.8235ZM189.381 30.7831L189.55 25.5404H190.731V32.9816H192.165V24.2721H188.285L188.032 30.8676C188.032 31.7132 187.779 31.7978 187.188 31.7978V32.9816H187.441C188.707 32.9816 189.297 32.3897 189.381 30.7831ZM207.685 30.8676V29.7684C207.685 28.3309 207.01 27.6544 205.66 27.6544H204.985V24.3566H203.636V32.9816H205.66C207.01 32.9816 207.685 32.2206 207.685 30.8676ZM204.985 28.7537H205.66C206.082 28.7537 206.335 28.9228 206.335 29.5993V30.8676C206.335 31.4596 206.082 31.7132 205.66 31.7132H204.985V28.7537ZM197.226 30.8676V29.7684C197.226 28.3309 196.551 27.6544 195.201 27.6544H194.526V24.3566H193.177V32.9816H195.201C196.551 32.9816 197.226 32.2206 197.226 30.8676ZM194.526 28.7537H195.201C195.623 28.7537 195.876 28.9228 195.876 29.5993V30.8676C195.876 31.4596 195.623 31.7132 195.201 31.7132H194.526V28.7537ZM199.587 29.261H201.106V32.9816H202.539V24.2721H201.106V27.9926H199.587V24.2721H198.238V32.9816H199.587V29.261ZM164.415 24.2721H163.065V31.7132H161.547V24.2721H160.197V32.9816H163.74V34.1654H165.09V31.7978H164.499V24.2721H164.415ZM185.08 32.9816H186.429L184.995 24.2721H182.971L181.621 32.9816H182.887L183.14 31.375H184.827L185.08 32.9816ZM183.308 30.1912L183.983 25.7941L184.658 30.1912H183.308ZM214.685 25.5404V24.2721H210.974V32.9816H214.685V31.7132H212.324V29.1765H214.179V27.9081H212.324V25.4559H214.685V25.5404ZM173.356 24.1875C172.006 24.1875 171.247 24.9485 171.247 26.386V30.9522C171.247 32.3897 172.006 33.1507 173.356 33.1507C174.705 33.1507 175.464 32.3897 175.464 30.9522V26.386C175.464 24.9485 174.705 24.1875 173.356 24.1875ZM174.03 30.9522C174.03 31.5441 173.777 31.7978 173.356 31.7978C172.934 31.7978 172.681 31.5441 172.681 30.9522V26.2169C172.681 25.625 172.934 25.3713 173.356 25.3713C173.777 25.3713 174.03 25.625 174.03 26.2169V30.9522ZM177.826 29.261H179.344V32.9816H180.778V24.2721H179.344V27.9926H177.826V24.2721H176.476V32.9816H177.826V29.261ZM196.973 35.9412V34.6728H193.261V43.3824H196.973V42.114H194.611V39.5772H196.466V38.3088H194.611V35.8566H196.973V35.9412ZM201.106 43.4669H202.539L200.599 38.6471L202.539 34.7574H201.19L199.419 38.5625V34.7574H198.069V43.4669H199.419V40.761L199.84 40L201.106 43.4669ZM205.998 43.4669V36.0257H207.432V34.7574H203.214V36.0257H204.648V43.4669H205.998ZM212.324 41.2684V40.1691C212.324 38.7316 211.649 38.0551 210.299 38.0551H209.625V34.7574H208.275V43.4669H210.299C211.649 43.4669 212.324 42.7059 212.324 41.2684ZM209.625 39.239H210.299C210.721 39.239 210.974 39.4081 210.974 40.0846V41.3529C210.974 41.9449 210.721 42.1985 210.299 42.1985H209.625V39.239ZM187.273 38.0551V36.9559C187.273 35.6029 186.598 34.8419 185.248 34.8419H183.224V43.5515H184.574V40.2537H185.248C186.598 40.1691 187.273 39.4081 187.273 38.0551ZM184.574 35.9412H185.248C185.67 35.9412 185.923 36.1103 185.923 36.7868V38.0551C185.923 38.6471 185.67 38.9007 185.248 38.9007H184.574V35.9412ZM177.826 43.4669H179.175V36.0257H180.694V43.4669H182.128V34.7574H177.826V43.4669ZM213.167 43.4669H214.517V34.7574H213.167V43.4669ZM190.14 34.5882C188.791 34.5882 188.032 35.3493 188.032 36.7868V41.3529C188.032 42.7904 188.791 43.5515 190.14 43.5515C191.49 43.5515 192.249 42.7904 192.249 41.3529V36.7868C192.249 35.4338 191.49 34.5882 190.14 34.5882ZM190.9 41.4375C190.9 42.0294 190.647 42.2831 190.225 42.2831C189.803 42.2831 189.55 42.0294 189.55 41.4375V36.7022C189.55 36.1103 189.803 35.8566 190.225 35.8566C190.647 35.8566 190.9 36.1103 190.9 36.7022V41.4375ZM211.902 48.7941L211.396 50.739V45.2426H210.215V53.9522H211.649L212.83 49.9779L213.42 47.864V54.0368H214.685V45.1581H212.998L211.902 48.7941ZM191.659 45.0735C190.309 45.0735 189.55 45.8346 189.55 47.2721V51.8382C189.55 53.2757 190.309 54.0368 191.659 54.0368C193.008 54.0368 193.767 53.2757 193.767 51.8382V47.2721C193.767 45.9191 193.008 45.0735 191.659 45.0735ZM192.333 51.9228C192.333 52.5147 192.08 52.7684 191.659 52.7684C191.237 52.7684 190.984 52.5147 190.984 51.9228V47.1875C190.984 46.5956 191.237 46.3419 191.659 46.3419C192.08 46.3419 192.333 46.5956 192.333 47.1875V51.9228ZM186.682 45.1581H184.658V53.8676H186.007V50.5699H186.682C188.032 50.5699 188.707 49.8088 188.707 48.4559V47.3566C188.791 45.9191 188.116 45.1581 186.682 45.1581ZM187.357 48.5404C187.357 49.1324 187.104 49.386 186.682 49.386H186.007V46.4265H186.682C187.104 46.4265 187.357 46.5956 187.357 47.2721V48.5404ZM196.719 45.0735C195.37 45.0735 194.695 45.8346 194.695 47.2721V51.8382C194.695 53.2757 195.37 54.0368 196.719 54.0368C198.069 54.0368 198.744 53.2757 198.744 51.8382V50.6544H197.479V51.9228C197.479 52.5147 197.226 52.7684 196.804 52.7684C196.382 52.7684 196.129 52.5147 196.129 51.9228V47.1875C196.129 46.5956 196.382 46.3419 196.804 46.3419C197.226 46.3419 197.479 46.5956 197.479 47.1875V48.1176H198.744V47.2721C198.744 45.9191 198.069 45.0735 196.719 45.0735ZM201.696 45.0735C200.346 45.0735 199.672 45.8346 199.672 47.2721V51.8382C199.672 53.2757 200.346 54.0368 201.696 54.0368C203.045 54.0368 203.72 53.2757 203.72 51.8382V50.6544H202.455V51.9228C202.455 52.5147 202.202 52.7684 201.78 52.7684C201.359 52.7684 201.106 52.5147 201.106 51.9228V47.1875C201.106 46.5956 201.359 46.3419 201.78 46.3419C202.202 46.3419 202.455 46.5956 202.455 47.1875V48.1176H203.72V47.2721C203.805 45.9191 203.045 45.0735 201.696 45.0735ZM206.419 48.7941L205.913 50.739V45.2426H204.732V53.9522H206.166L207.347 49.9779L207.938 47.864V54.0368H209.203V45.1581H207.685L206.419 48.7941Z" fill="white"/>
<path d="M164.415 12.4269C164.415 13.0188 164.331 13.4416 164.162 13.8644C163.993 14.2872 163.656 14.6255 163.318 14.8791C162.981 15.1328 162.559 15.2174 162.053 15.2174C161.631 15.2174 161.21 15.1328 160.788 14.8791C160.451 14.6255 160.113 14.3718 159.945 13.949C159.776 13.5262 159.607 13.0188 159.607 12.5115V12.1733C159.607 11.5813 159.692 11.1585 159.945 10.7358C160.113 10.313 160.451 9.97472 160.788 9.72105C161.125 9.46737 161.547 9.38281 162.053 9.38281C162.559 9.38281 162.897 9.46737 163.318 9.72105C163.656 9.97472 163.993 10.2284 164.162 10.6512C164.331 11.074 164.415 11.5813 164.499 12.0887V12.4269H164.415ZM163.403 12.0887C163.403 11.4968 163.318 10.9894 163.065 10.6512C162.812 10.313 162.475 10.1438 162.053 10.1438C161.631 10.1438 161.294 10.313 161.041 10.6512C160.788 10.9894 160.704 11.4968 160.704 12.0887V12.4269C160.704 13.0188 160.788 13.5262 161.041 13.8644C161.294 14.2027 161.631 14.3718 162.053 14.3718C162.475 14.3718 162.812 14.2027 163.065 13.8644C163.318 13.5262 163.403 13.0188 163.403 12.4269V12.0887Z" fill="#64BDE1"/>
<path d="M168.97 10.2284H166.355V11.5813H167.536C167.958 11.5813 168.295 11.6659 168.632 11.835C168.97 12.0041 169.138 12.1733 169.307 12.4269C169.476 12.6806 169.56 13.0188 169.56 13.3571C169.56 13.8644 169.391 14.2872 169.054 14.6255C168.717 14.9637 168.211 15.1328 167.536 15.1328H165.343V9.38281H168.97V10.2284ZM166.355 12.4269V14.3718H167.536C167.873 14.3718 168.126 14.2872 168.295 14.1181C168.464 13.949 168.548 13.6953 168.548 13.3571C168.548 13.1034 168.464 12.8497 168.295 12.6806C168.126 12.5115 167.873 12.4269 167.536 12.4269H166.355Z" fill="#64BDE1"/>
<path d="M171.331 13.0188V15.1328H170.319V9.38281H172.512C173.187 9.38281 173.693 9.55193 174.03 9.89016C174.368 10.2284 174.621 10.6512 174.621 11.2431C174.621 11.835 174.452 12.2578 174.03 12.5115C173.693 12.8497 173.187 13.0188 172.512 13.0188H171.331ZM171.331 12.1733H172.512C172.849 12.1733 173.103 12.0887 173.356 11.9196C173.524 11.7505 173.609 11.4968 173.609 11.1585C173.609 10.8203 173.524 10.5666 173.356 10.3975C173.187 10.2284 172.934 10.1438 172.596 10.1438H171.416V12.1733H171.331Z" fill="#64BDE1"/>
<path d="M178.332 13.7799H176.139L175.717 15.1328H174.705L176.898 9.38281H177.826L180.019 15.1328H179.007L178.332 13.7799ZM176.392 13.0188H178.079L177.235 10.6512L176.392 13.0188Z" fill="#64BDE1"/>
<path d="M183.308 10.9894C183.308 10.7358 183.224 10.5666 183.055 10.3975C182.887 10.2284 182.634 10.1438 182.296 10.1438C182.043 10.1438 181.79 10.2284 181.622 10.3975C181.453 10.5666 181.368 10.7358 181.368 10.9894H180.356C180.356 10.6512 180.441 10.3975 180.609 10.1438C180.778 9.89017 181.031 9.72105 181.284 9.55193C181.622 9.38281 181.959 9.38281 182.296 9.38281C182.971 9.38281 183.477 9.55193 183.815 9.80561C184.152 10.0593 184.321 10.4821 184.321 10.9894C184.321 11.2431 184.236 11.4968 184.068 11.6659C183.899 11.9196 183.73 12.0887 183.393 12.1733C183.73 12.2578 183.983 12.4269 184.152 12.6806C184.321 12.9343 184.405 13.188 184.405 13.5262C184.405 14.0335 184.236 14.4563 183.815 14.71C183.393 15.0483 182.887 15.1328 182.212 15.1328C181.79 15.1328 181.453 15.0483 181.115 14.8791C180.778 14.71 180.525 14.5409 180.356 14.2872C180.188 14.0335 180.103 13.7799 180.103 13.4416H181.115C181.115 13.6953 181.2 13.8644 181.453 14.0335C181.622 14.2027 181.875 14.2872 182.212 14.2872C182.549 14.2872 182.802 14.2027 183.055 14.0335C183.308 13.8644 183.393 13.6953 183.393 13.3571C183.393 13.0188 183.308 12.7652 183.14 12.6806C182.971 12.5115 182.718 12.4269 182.296 12.4269H181.622V11.835H182.296C182.971 11.835 183.308 11.4968 183.308 10.9894Z" fill="#64BDE1"/>
<path d="M189.888 12.4269C189.888 13.0188 189.803 13.4416 189.635 13.8644C189.466 14.2872 189.128 14.6255 188.791 14.8791C188.454 15.1328 188.032 15.2174 187.526 15.2174C187.104 15.2174 186.682 15.1328 186.261 14.8791C185.923 14.6255 185.586 14.3718 185.417 13.949C185.249 13.5262 185.08 13.0188 185.08 12.5115V12.1733C185.08 11.5813 185.164 11.1585 185.417 10.7358C185.586 10.313 185.923 9.97472 186.261 9.72105C186.598 9.46737 187.02 9.38281 187.526 9.38281C188.032 9.38281 188.369 9.46737 188.791 9.72105C189.128 9.97472 189.466 10.2284 189.635 10.6512C189.803 11.074 189.888 11.5813 189.972 12.0887V12.4269H189.888ZM188.875 12.0887C188.875 11.4968 188.791 10.9894 188.538 10.6512C188.285 10.313 187.948 10.1438 187.526 10.1438C187.104 10.1438 186.767 10.313 186.514 10.6512C186.261 10.9894 186.176 11.4968 186.176 12.0887V12.4269C186.176 13.0188 186.261 13.5262 186.514 13.8644C186.767 14.2027 187.104 14.3718 187.526 14.3718C187.948 14.3718 188.285 14.2027 188.538 13.8644C188.791 13.5262 188.875 13.0188 188.875 12.4269V12.0887Z" fill="#64BDE1"/>
<path d="M190.9 15.1328V9.38281H192.84C193.514 9.38281 193.936 9.55193 194.274 9.80561C194.611 10.0593 194.78 10.4821 194.78 10.9894C194.78 11.2431 194.695 11.4968 194.527 11.6659C194.358 11.835 194.189 12.0041 193.936 12.1733C194.274 12.2578 194.442 12.4269 194.611 12.6806C194.78 12.9343 194.864 13.188 194.864 13.5262C194.864 14.0335 194.695 14.4563 194.358 14.7946C194.02 15.0483 193.514 15.2174 192.924 15.2174H190.9V15.1328ZM191.827 11.835H192.84C193.177 11.835 193.43 11.7505 193.599 11.6659C193.767 11.4968 193.852 11.3277 193.852 11.074C193.852 10.8203 193.767 10.5666 193.599 10.4821C193.43 10.3975 193.177 10.313 192.84 10.313H191.912V11.835H191.827ZM191.827 12.5115V14.3718H192.924C193.261 14.3718 193.514 14.2872 193.683 14.1181C193.852 13.949 193.936 13.7799 193.936 13.4416C193.936 12.8497 193.599 12.5115 193.008 12.5115H191.827Z" fill="#64BDE1"/>
<path d="M199.081 13.7799H196.888L196.467 15.1328H195.454L197.647 9.38281H198.575L200.768 15.1328H199.756L199.081 13.7799ZM197.141 13.0188H198.828L197.985 10.6512L197.141 13.0188Z" fill="#64BDE1"/>
<path d="M205.829 15.1328H204.817V12.596H202.287V15.1328H201.274V9.38281H202.287V11.7505H204.817V9.38281H205.829V15.1328Z" fill="#64BDE1"/>
<path d="M210.468 9.38281H211.48V15.1328H210.468V11.074L207.938 15.1328H206.926V9.38281H207.938V13.5262L210.468 9.38281Z" fill="#64BDE1"/>
<path d="M215.951 12.596H213.589V14.3718H216.288V15.1328H212.577V9.38281H216.288V10.1438H213.589V11.7505H215.951V12.596Z" fill="#64BDE1"/>
</g>
<defs>
<linearGradient id="paint0_linear_323_10439" x1="57.0623" y1="64.7208" x2="0.926204" y2="48.2337" gradientUnits="userSpaceOnUse">
<stop stop-color="#38B2CF"/>
<stop offset="0.463542" stop-color="#68E1FE"/>
</linearGradient>
<linearGradient id="paint1_linear_323_10439" x1="47.9659" y1="57.316" x2="-18.8015" y2="13.5767" gradientUnits="userSpaceOnUse">
<stop stop-color="#68E1FE"/>
<stop offset="0.854167" stop-color="#38B2CF"/>
</linearGradient>
<linearGradient id="paint2_linear_323_10439" x1="61.6177" y1="45.1089" x2="61.6177" y2="2.42934" gradientUnits="userSpaceOnUse">
<stop stop-color="#716EDB"/>
<stop offset="1" stop-color="#524FD5"/>
</linearGradient>
<clipPath id="clip0_323_10439">
<rect width="96" height="92" fill="white"/>
</clipPath>
<clipPath id="clip1_323_10439">
<rect width="111" height="92" fill="white" transform="translate(116)"/>
</clipPath>
</defs>
</svg>
