<svg width="20" height="20" viewBox="0 0 20 20" fill="none" xmlns="http://www.w3.org/2000/svg">
<path d="M10 20C4.48329 20 3.52308e-05 15.52 3.52308e-05 10.0073C-0.0145208 4.49455 4.48329 0 10 0C15.5167 0 20 4.48 20 9.99273C20 15.52 15.5167 20 10 20ZM10 2.63273C5.93889 2.63273 2.62012 5.93455 2.62012 10.0073C2.62012 14.0655 5.92433 17.3818 10 17.3818C14.0757 17.3818 17.3799 14.08 17.3799 10.0073C17.3654 5.93455 14.0611 2.63273 10 2.63273Z" fill="#515A6D"/>
<path d="M8.10767 10.0063C8.10767 9.03172 8.10767 8.05718 8.10767 7.08263C8.10767 6.84991 8.15133 6.63173 8.38423 6.51536C8.61713 6.399 8.80635 6.48627 8.99558 6.61718C10.3347 7.59172 11.6739 8.55172 12.9985 9.52627C13.3915 9.80263 13.3915 10.1663 12.9985 10.4572C11.6593 11.4317 10.3202 12.4063 8.98103 13.3808C8.7918 13.5117 8.60257 13.5845 8.38423 13.4681C8.16589 13.3517 8.10767 13.1626 8.10767 12.9299C8.12222 11.9554 8.10767 10.9808 8.10767 10.0063Z" fill="#515A6D"/>
</svg>
