<svg width="24" height="17" viewBox="0 0 24 17" fill="none" xmlns="http://www.w3.org/2000/svg">
<path d="M12.0085 16.0533C9.50177 16.0533 7.11363 15.2911 4.89486 13.8006C3.40438 12.8013 2.08328 11.5311 0.863806 9.93896C0.186319 9.05823 0.186319 7.92344 0.880743 7.0427C2.30347 5.17961 3.86169 3.77382 5.65703 2.72372C7.283 1.7583 9.04447 1.1655 10.8398 0.996124C11.2294 0.945313 11.602 0.945312 12.0085 0.945312C14.5152 0.945312 16.9033 1.70749 19.1221 3.19796C20.6126 4.19725 21.9337 5.45061 23.1531 7.05964C23.7968 7.9065 23.8137 9.10904 23.1531 9.9559C21.7304 11.819 20.1553 13.2417 18.3769 14.2918C16.734 15.2572 14.9725 15.85 13.1602 16.0194C12.7876 16.0364 12.415 16.0533 12.0085 16.0533ZM3.99719 8.02506C3.76007 8.29605 3.76007 8.70255 3.99719 8.97354C4.81017 9.90509 5.65703 10.6673 6.58858 11.277C8.58717 12.615 10.6704 13.2078 12.8723 12.9707C14.2611 12.8352 15.5822 12.3949 16.8525 11.6496C18.0042 10.9721 19.0543 10.0914 20.0367 8.97354C20.2738 8.70255 20.2738 8.29605 20.0367 8.02506C19.2237 7.09351 18.3769 6.33134 17.4453 5.7216C15.4467 4.38356 13.3635 3.79076 11.1616 4.02788C9.77277 4.16338 8.43473 4.60375 7.16444 5.34898C6.01271 6.02647 4.96261 6.89027 3.99719 8.02506ZM20.7481 8.90579C20.765 8.90579 20.765 8.90579 20.7481 8.90579C20.765 8.90579 20.765 8.90579 20.7481 8.90579ZM3.28582 8.88886C3.28582 8.88886 3.26889 8.88886 3.28582 8.88886C3.26889 8.88886 3.28582 8.88886 3.28582 8.88886ZM3.26889 8.07587C3.26889 8.07587 3.26889 8.09281 3.26889 8.07587C3.26889 8.09281 3.26889 8.07587 3.26889 8.07587Z" fill="#0A0061"/>
<path d="M11.9322 5.94531C13.3211 5.94531 14.4728 7.0801 14.4728 8.45202C14.4728 9.89168 13.3211 11.0603 11.8984 11.0603C10.5095 11.0603 9.35779 9.90862 9.35779 8.51977C9.37473 7.09704 10.5265 5.94531 11.9322 5.94531Z" fill="#0A0061"/>
</svg>
